<svg width="217" height="284" viewBox="0 0 217 284" fill="none" xmlns="http://www.w3.org/2000/svg">
<g clip-path="url(#clip0_1_17)">
<rect width="217" height="284" fill="white"/>
<path fill-rule="evenodd" clip-rule="evenodd" d="M108.75 283.5C168.535 283.5 217 235.902 217 177.188C217 118.473 168.535 70.875 108.75 70.875C48.9652 70.875 0.5 118.473 0.5 177.188C0.5 235.902 48.9652 283.5 108.75 283.5ZM78.7098 229.755L161.144 180.11C161.676 179.789 162.113 179.355 162.415 178.845C162.717 178.335 162.875 177.766 162.875 177.188C162.875 176.609 162.717 176.04 162.415 175.53C162.113 175.02 161.676 174.586 161.144 174.265L78.7098 124.62C78.1242 124.268 77.4439 124.066 76.7412 124.035C76.0386 124.005 75.3401 124.147 74.7199 124.447C74.0998 124.747 73.5813 125.193 73.2198 125.738C72.8582 126.284 72.667 126.907 72.6667 127.542V226.833C72.667 227.468 72.8582 228.091 73.2198 228.637C73.5813 229.182 74.0998 229.628 74.7199 229.928C75.3401 230.228 76.0386 230.37 76.7412 230.34C77.4439 230.309 78.1242 230.107 78.7098 229.755Z" fill="#3700FF"/>
<path d="M63.6458 53.1562C78.592 53.1562 90.7083 41.2568 90.7083 26.5781C90.7083 11.8994 78.592 0 63.6458 0C48.6996 0 36.5833 11.8994 36.5833 26.5781C36.5833 41.2568 48.6996 53.1562 63.6458 53.1562Z" fill="#3700FF"/>
<path d="M180.917 26.5781C180.917 41.2568 168.8 53.1562 153.854 53.1562C138.908 53.1562 126.792 41.2568 126.792 26.5781C126.792 11.8994 138.908 0 153.854 0C168.8 0 180.917 11.8994 180.917 26.5781Z" fill="#3700FF"/>
</g>
<defs>
<clipPath id="clip0_1_17">
<rect width="217" height="284" fill="white"/>
</clipPath>
</defs>
</svg>
